<svg version="1.0" xmlns="http://www.w3.org/2000/svg"
     width="512.000000pt" height="512.000000pt" viewBox="0 0 512.000000 512.000000"
     preserveAspectRatio="xMidYMid meet">

    <g transform="translate(0.000000,512.000000) scale(0.100000,-0.100000)"
       fill="#000000" stroke="none">
        <path d="M2070 3866 c-661 -78 -1202 -342 -1495 -731 -69 -92 -143 -244 -172
-353 -22 -83 -26 -118 -26 -242 0 -495 215 -845 651 -1060 214 -106 459 -171
817 -216 111 -15 275 -18 1130 -21 736 -3 1016 -1 1060 7 98 19 161 61 184
122 7 18 20 28 43 33 85 19 169 93 189 169 29 107 -43 234 -165 292 l-38 19 7
65 c4 36 9 67 12 70 12 12 234 2 303 -14 41 -9 86 -19 100 -22 17 -4 34 1 50
14 35 29 30 78 -19 176 -49 100 -127 194 -219 265 l-69 54 -6 106 c-18 344
-218 648 -587 893 -265 175 -610 301 -988 359 -176 27 -588 35 -762 15z m670
-142 c580 -68 1073 -305 1342 -643 69 -86 149 -246 173 -346 11 -42 18 -118
20 -190 1 -66 3 -123 4 -126 0 -3 27 -22 59 -42 56 -34 189 -164 211 -205 10
-18 6 -19 -137 -14 -157 5 -244 -9 -273 -44 -7 -9 -14 -49 -16 -97 -6 -148
-37 -249 -101 -325 l-27 -33 -45 16 c-109 39 -180 45 -572 45 -209 0 -378 3
-376 8 2 4 17 34 34 67 122 234 115 526 -19 765 -50 89 -185 229 -270 279
-138 81 -261 115 -422 115 -137 0 -218 -17 -334 -70 -104 -48 -141 -78 -141
-115 0 -32 30 -69 58 -69 9 0 58 20 107 45 117 59 196 78 315 78 369 -1 660
-291 660 -658 0 -149 -42 -281 -128 -399 l-35 -48 -351 5 c-371 5 -449 13
-671 62 -63 14 -165 42 -226 61 -104 33 -112 34 -135 19 -32 -21 -40 -59 -20
-90 30 -46 350 -133 631 -171 99 -14 262 -18 950 -23 823 -7 831 -7 889 -29
97 -36 196 -104 196 -134 0 -5 -17 -17 -37 -26 -35 -16 -118 -17 -1023 -17
-1089 0 -1148 3 -1465 66 -717 143 -1077 534 -1053 1143 5 102 10 136 38 220
117 348 465 638 969 805 370 124 803 164 1221 115z m1517 -1995 c39 -24 63
-65 63 -108 0 -38 -45 -77 -101 -86 -36 -6 -44 -4 -70 21 -34 32 -36 45 -11
68 11 9 31 41 47 71 15 30 30 55 33 55 2 0 20 -9 39 -21z"/>
        <path d="M3504 2864 c-113 -60 -205 -165 -279 -319 -58 -119 -61 -135 -35
-168 23 -29 65 -36 92 -14 9 6 30 47 48 89 17 42 54 108 81 147 47 68 128 141
155 141 23 0 82 -101 100 -170 13 -51 15 -91 11 -183 -6 -108 -4 -120 13 -137
25 -25 61 -25 90 -2 35 28 49 180 28 300 -24 138 -99 270 -181 321 -45 27 -64
27 -123 -5z"/>
        <path d="M3451 1959 c-56 -52 24 -180 123 -196 97 -16 123 103 28 132 -12 3
-30 19 -39 33 -35 57 -73 67 -112 31z"/>
    </g>
</svg>
